<svg width="60" height="61" viewBox="0 0 60 61" fill="none" xmlns="http://www.w3.org/2000/svg">
<path fill-rule="evenodd" clip-rule="evenodd" d="M30 0.546875C34.1242 0.546875 38.0156 1.32026 41.6718 2.86704C45.3281 4.41407 48.5141 6.54763 51.2343 9.26545C53.9523 11.9858 56.0859 15.1718 57.6328 18.8282C59.1796 22.4843 59.9531 26.3757 59.9531 30.5C59.9531 34.6263 59.1796 38.5154 57.6328 42.1719C56.0859 45.828 53.9523 49.0162 51.2343 51.7343C48.5141 54.4544 45.3281 56.5859 41.6718 58.1327C38.0156 59.6795 34.1242 60.4531 30 60.4531C25.8735 60.4531 21.9843 59.6795 18.3281 58.1327C14.6718 56.5859 11.4836 54.4544 8.76563 51.7343C6.04544 49.0162 3.914 45.828 2.36716 42.1719C0.820264 38.5154 0.046814 34.6263 0.046814 30.5C0.046814 26.3757 0.820264 22.4843 2.36716 18.8282C3.914 15.1718 6.04544 11.9858 8.76563 9.26545C11.4836 6.54763 14.6718 4.41407 18.3281 2.86704C21.9843 1.32026 25.8735 0.546875 30 0.546875V0.546875ZM30 58.0625C33.843 58.0625 37.4288 57.3374 40.7578 55.8828C44.0844 54.4302 47.0156 52.4858 49.5469 50.0467C51.9836 47.5156 53.9282 44.5867 55.3827 41.2577C56.8352 37.931 57.5625 34.3451 57.5625 30.5C57.5625 26.657 56.8352 23.0708 55.3827 19.742C53.9282 16.4153 51.9836 13.4842 49.5469 10.953C47.0156 8.51625 44.0844 6.57182 40.7578 5.11721C37.4288 3.66462 33.843 2.93728 30 2.93728C26.1548 2.93728 22.5688 3.66462 19.2421 5.11721C15.9132 6.57182 12.9843 8.51625 10.453 10.953C8.01412 13.4842 6.06956 16.4153 4.61721 19.742C3.16256 23.0708 2.43741 26.657 2.43741 30.5C2.43741 34.3451 3.16256 37.931 4.61721 41.2577C6.06956 44.5867 8.01412 47.5156 10.453 50.0467C12.9843 52.4858 15.9132 54.4302 19.2421 55.8828C22.5688 57.3374 26.1548 58.0625 30 58.0625V58.0625ZM45.0468 19.8123C45.3281 19.4389 45.7258 19.25 46.2421 19.25C46.7563 19.25 47.2023 19.4389 47.5781 19.8123C47.8594 20.1881 48 20.6341 48 21.1483C48 21.6646 47.8109 22.0625 47.4375 22.3438L26.9063 42.3123C26.8117 42.5013 26.6469 42.6178 26.414 42.6639C26.1789 42.7123 25.968 42.7342 25.7812 42.7342C25.4999 42.7342 25.2407 42.7123 25.0078 42.6639C24.7727 42.6178 24.6079 42.5013 24.5155 42.3123L16.4999 34.2967C16.1242 33.9232 15.9375 33.4772 15.9375 32.9609C15.9375 32.4467 16.1242 32.0468 16.4999 31.7655C16.7812 31.392 17.179 31.2031 17.6953 31.2031C18.2095 31.2031 18.6554 31.392 19.0312 31.7655L25.7812 38.5154L45.0468 19.8123V19.8123Z" fill="#FF6363"/>
</svg>
