<svg width="62" height="59" viewBox="0 0 62 59" fill="none" xmlns="http://www.w3.org/2000/svg">
<path fill-rule="evenodd" clip-rule="evenodd" d="M61.5859 28.656C61.5859 29.3131 61.4914 29.9217 61.3046 30.4841C61.1157 31.0467 60.8345 31.563 60.4609 32.0311C60.0852 32.5014 59.6633 32.8748 59.1954 33.1561C58.7251 33.4374 58.211 33.6724 57.6485 33.8592C57.9296 34.3294 58.1626 34.8217 58.3515 35.3357C58.5383 35.8523 58.6328 36.4388 58.6328 37.0936C58.6328 37.6562 58.5383 38.2185 58.3515 38.7811C58.1626 39.3437 57.9296 39.86 57.6485 40.3279C57.2727 40.7036 56.8508 41.0552 56.3828 41.3826C55.9125 41.7122 55.4445 41.9693 54.9765 42.1562C55.2578 42.6264 55.4907 43.1404 55.6797 43.703C55.8664 44.2656 55.9609 44.8279 55.9609 45.3905C55.9609 46.0473 55.8664 46.6341 55.6797 47.1484C55.4907 47.6646 55.2578 48.1567 54.9765 48.6249C54.6008 49.0951 54.179 49.4927 53.7109 49.82C53.2407 50.1497 52.7265 50.3608 52.1641 50.4529C52.5376 50.9231 52.8188 51.4155 53.0078 51.9294C53.1946 52.446 53.289 53.0325 53.289 53.6873C53.289 54.3443 53.1484 55.0014 52.8672 55.6561C52.5859 56.3132 52.2102 56.8755 51.7421 57.3437C51.1797 57.8138 50.5688 58.1874 49.914 58.4686C49.2571 58.75 48.5539 58.8904 47.8046 58.8904H29.2421C28.5852 58.8904 27.8359 58.7983 26.9922 58.6092C26.1484 58.4226 25.2563 58.1412 24.3203 57.7655C23.382 57.4842 22.4438 57.1327 21.5078 56.7108C20.5696 56.289 19.6313 55.8911 18.6953 55.5154C17.5703 55.0474 16.4672 54.5796 15.3906 54.1091C14.3118 53.6412 13.5383 53.406 13.0702 53.406H0.273438V25.9843L1.39843 25.8435C6.74217 25.8435 10.3984 25.8435 12.3672 25.8435C13.2109 25.8435 13.9843 25.7513 14.6875 25.5622C15.3906 25.3756 16.1157 24.9999 16.8672 24.4373C17.7109 23.9693 18.6711 23.3123 19.75 22.4687C20.8267 21.6247 22.1164 20.5943 23.6171 19.3749C26.5219 16.9381 28.2336 13.8904 28.75 10.2342C29.2642 6.57806 29.5234 4.46868 29.5234 3.90608C29.5234 3.34347 29.664 2.80533 29.9453 2.28878C30.2265 1.7748 30.6001 1.37488 31.0704 1.09355C31.5383 0.720107 32.0304 0.460735 32.5468 0.320191C33.061 0.179403 33.5532 0.109131 34.0235 0.109131C34.7726 0.109131 35.5219 0.20362 36.2734 0.390463C37.0227 0.579319 37.7257 1.00144 38.3828 1.65615C39.0376 2.313 39.554 3.18103 39.9297 4.25762C40.3033 5.33653 40.4922 6.76698 40.4922 8.54665C40.4922 10.1418 40.3735 11.6647 40.1406 13.117C39.9055 14.5716 39.6001 15.9537 39.2265 17.2655C38.9453 18.5793 38.5937 19.7748 38.1719 20.8514C37.75 21.9302 37.3984 22.8444 37.1172 23.5936H56.2421C57.0859 23.5936 57.811 23.7122 58.4219 23.9452C59.0306 24.1802 59.6172 24.5317 60.1797 24.9999C60.6477 25.4701 60.9993 26.0084 61.2343 26.6169C61.4673 27.2279 61.5859 27.9068 61.5859 28.656V28.656V28.656ZM56.2421 31.6093C56.7102 31.6093 57.1321 31.5388 57.5078 31.3983C57.8814 31.2577 58.1626 31.0467 58.3515 30.7654C58.6328 30.4841 58.8658 30.1809 59.0547 29.8515C59.2414 29.5241 59.3359 29.1262 59.3359 28.656C59.3359 27.9068 59.0547 27.2498 58.4922 26.6874C57.9296 26.1248 57.1782 25.8435 56.2421 25.8435H47.8046C47.8046 25.9379 47.8046 25.9379 47.8046 25.8435H33.3203L34.164 24.1559C36.7876 17.6873 38.1016 12.4841 38.1016 8.54665C38.1016 5.45285 37.5852 3.64896 36.5547 3.13272C35.5219 2.61843 34.6782 2.3593 34.0235 2.3593C33.7421 2.3593 33.3203 2.49984 32.7578 2.78111C32.1952 3.06245 31.9141 3.43821 31.9141 3.90608C31.9141 4.46868 31.8657 5.4068 31.7734 6.7186C31.679 8.03266 31.3977 9.53107 30.9297 11.2186C30.4594 12.9062 29.7805 14.6419 28.8905 16.4218C27.9986 18.2036 26.757 19.7506 25.164 21.0624C23.5689 22.3763 22.2329 23.477 21.1563 24.367C20.0773 25.259 19.0688 25.9843 18.1328 26.5467C17.1945 27.1093 16.2563 27.5311 15.3203 27.8124C14.382 28.0937 13.3977 28.2342 12.3672 28.2342C11.6157 28.2342 10.7962 28.2342 9.90621 28.2342C9.01411 28.2342 8.10013 28.2342 7.164 28.2342C6.32029 28.2342 5.49846 28.2342 4.70313 28.2342C3.90544 28.2342 3.22653 28.2342 2.66403 28.2342V51.0155H13.0702C13.725 51.0155 14.593 51.2263 15.6719 51.6482C16.7485 52.0702 18.0844 52.6107 19.6796 53.2654C20.429 53.6412 21.2485 54.0388 22.1406 54.4607C23.0305 54.8827 23.8984 55.2343 24.7422 55.5154C25.6782 55.7966 26.5219 56.0561 27.2734 56.289C28.0227 56.5239 28.6796 56.6406 29.2421 56.6406H44.8515H47.8046C48.2726 56.6406 48.6946 56.5482 49.0703 56.3592C49.4438 56.1724 49.7734 55.9374 50.0547 55.6561C50.3359 55.4693 50.5468 55.188 50.6875 54.8122C50.8281 54.4388 50.8984 54.063 50.8984 53.6873C50.8984 53.2194 50.8281 52.8217 50.6875 52.492C50.5468 52.1647 50.3359 51.8592 50.0547 51.5779C49.7734 51.2969 49.4438 51.0858 49.0703 50.9452C48.6946 50.8045 48.2726 50.7343 47.8046 50.7343H47.5234V48.3435H50.7577C51.1314 48.3435 51.507 48.2733 51.8828 48.1328C52.2563 47.992 52.5859 47.7812 52.8672 47.4999C53.0539 47.2186 53.2407 46.8912 53.4297 46.5155C53.6165 46.142 53.7109 45.7663 53.7109 45.3905C53.7109 45.0168 53.6165 44.6411 53.4297 44.2656C53.2407 43.8919 53.0539 43.5625 52.8672 43.2811C52.5859 43.0943 52.2563 42.9075 51.8828 42.7185C51.507 42.5319 51.1314 42.4373 50.7577 42.4373H49.7734V40.0468H53.289C53.6626 40.0468 54.0383 39.9763 54.414 39.8358C54.7876 39.6953 55.1172 39.4842 55.3984 39.2029C55.6797 38.9216 55.9125 38.5942 56.1016 38.2185C56.2883 37.845 56.3828 37.4693 56.3828 37.0936C56.3828 36.6256 56.2883 36.2038 56.1016 35.828C55.9125 35.4544 55.6797 35.1733 55.3984 34.9842C55.1172 34.7028 54.7876 34.4702 54.414 34.281C54.0383 34.0944 53.6626 33.9998 53.289 33.9998H52.1641V31.6093H56.2421V31.6093V31.6093V31.6093V31.6093Z" fill="#00A2FF"/>
</svg>
