<svg width="58" height="57" viewBox="0 0 58 57" fill="none" xmlns="http://www.w3.org/2000/svg">
<path fill-rule="evenodd" clip-rule="evenodd" d="M57.2657 53.8123L54.3124 56.7656L38 40.4528C37.0617 41.2968 36.0312 42.0483 34.9062 42.703C33.7812 43.3601 32.6079 43.9224 31.3906 44.3906C30.1712 44.8608 28.8813 45.2123 27.5234 45.4452C26.1633 45.6802 24.8273 45.7968 23.5156 45.7968C20.3273 45.7968 17.3501 45.1881 14.5859 43.9685C11.8196 42.7514 9.40473 41.1099 7.34373 39.0466C5.28045 36.9856 3.66327 34.571 2.49213 31.8046C1.31883 29.0404 0.734314 26.1093 0.734314 23.0155C0.734314 19.8295 1.31883 16.8521 2.49213 14.0859C3.66327 11.3218 5.28045 8.90689 7.34373 6.84361C9.40473 4.78256 11.8196 3.16525 14.5859 1.99198C17.3501 0.820945 20.3273 0.234131 23.5156 0.234131C26.6094 0.234131 29.5383 0.820945 32.3047 1.99198C35.0688 3.16525 37.4836 4.78256 39.5469 6.84361C41.6079 8.90689 43.2493 11.3218 44.4687 14.0859C45.686 16.8521 46.2968 19.8295 46.2968 23.0155C46.2968 24.3293 46.1781 25.6653 45.9453 27.0232C45.7101 28.3834 45.3585 29.6733 44.8906 30.8904C44.4203 32.1101 43.8579 33.2811 43.2032 34.406C42.5461 35.531 41.7968 36.5638 40.9531 37.4998L57.2657 53.8123V53.8123ZM3.12495 23.0155C3.12495 25.828 3.63915 28.4537 4.67181 30.8904C5.70231 33.3295 7.15479 35.4849 9.03123 37.3593C10.9055 39.2358 13.0851 40.7123 15.5703 41.7888C18.0531 42.8677 20.703 43.4061 23.5156 43.4061C26.3281 43.4061 28.9516 42.8677 31.3906 41.7888C33.8273 40.7123 35.9829 39.2358 37.8593 37.3593C39.7337 35.4849 41.2101 33.3295 42.2891 30.8904C43.3657 28.4537 43.9062 25.828 43.9062 23.0155C43.9062 20.203 43.3657 17.5552 42.2891 15.07C41.2101 12.5872 39.7337 10.4076 37.8593 8.53112C35.9829 6.65675 33.8273 5.20441 31.3906 4.17161C28.9516 3.14112 26.3281 2.62481 23.5156 2.62481C20.703 2.62481 18.0531 3.14112 15.5703 4.17161C13.0851 5.20441 10.9055 6.65675 9.03123 8.53112C7.15479 10.4076 5.70231 12.5872 4.67181 15.07C3.63915 17.5552 3.12495 20.203 3.12495 23.0155V23.0155Z" fill="#5474FD"/>
</svg>
