<svg width="20" height="22" viewBox="0 0 20 22" fill="none" xmlns="http://www.w3.org/2000/svg">
<path fill-rule="evenodd" clip-rule="evenodd" d="M19.9928 19.9796L18.9488 21.0267L13.1819 15.2431C12.8501 15.5422 12.4858 15.8087 12.0881 16.0409C11.6904 16.2738 11.2756 16.4731 10.8451 16.6391C10.414 16.8059 9.95808 16.9306 9.47795 17.0131C8.99709 17.0964 8.5248 17.1379 8.0611 17.1379C6.93393 17.1379 5.88132 16.922 4.90415 16.4897C3.92609 16.0579 3.07241 15.476 2.3437 14.7446C1.61436 14.0137 1.04262 13.1576 0.628602 12.177C0.213704 11.1969 0.00708008 10.1577 0.00708008 9.0608C0.00708008 7.93126 0.213704 6.87557 0.628602 5.89496C1.04262 4.91484 1.61436 4.05872 2.3437 3.3271C3.07241 2.59647 3.92609 2.02318 4.90415 1.60721C5.88132 1.19199 6.93393 0.983765 8.0611 0.983765C9.15479 0.983765 10.1904 1.19199 11.1683 1.60721C12.1456 2.02318 12.9993 2.59647 13.7287 3.3271C14.4573 4.05872 15.0376 4.91484 15.4687 5.89496C15.899 6.87557 16.115 7.93126 16.115 9.0608C16.115 9.52666 16.0731 10.0004 15.9908 10.4818C15.9076 10.964 15.7834 11.4212 15.6179 11.8529C15.4517 12.2852 15.2528 12.7004 15.0213 13.0993C14.7891 13.4982 14.5242 13.8643 14.2259 14.196L19.9928 19.9796ZM0.852298 9.0608C0.852298 10.0579 1.03404 10.9889 1.39913 11.8529C1.76349 12.7175 2.27697 13.4817 2.94034 14.1464C3.60296 14.8116 4.3736 15.335 5.25208 15.7168C6.12992 16.0992 7.06675 16.2901 8.0611 16.2901C9.05535 16.2901 9.98296 16.0992 10.8451 15.7168C11.7067 15.335 12.4687 14.8116 13.1321 14.1464C13.7947 13.4817 14.3168 12.7175 14.6982 11.8529C15.0788 10.9889 15.2699 10.0579 15.2699 9.0608C15.2699 8.06364 15.0788 7.12505 14.6982 6.24396C14.3168 5.36367 13.7947 4.59077 13.1321 3.92559C12.4687 3.26091 11.7067 2.74616 10.8451 2.37982C9.98296 2.01452 9.05535 1.83149 8.0611 1.83149C7.06675 1.83149 6.12992 2.01452 5.25208 2.37982C4.3736 2.74616 3.60296 3.26091 2.94034 3.92559C2.27697 4.59077 1.76349 5.36367 1.39913 6.24396C1.03404 7.12505 0.852298 8.06364 0.852298 9.0608Z" fill="white"/>
</svg>
