<svg width="15" height="12" viewBox="0 0 15 12" fill="none" xmlns="http://www.w3.org/2000/svg">
<path d="M14.5346 1.92857C14.0167 2.15178 13.4542 2.3125 12.8739 2.375C13.4721 2.01786 13.9275 1.45536 14.1417 0.785714C13.5882 1.11607 12.9632 1.35714 12.3114 1.48214C11.7846 0.919642 11.0346 0.571428 10.2042 0.571428C8.60603 0.571428 7.32031 1.86607 7.32031 3.45536C7.32031 3.67857 7.3471 3.90178 7.39174 4.11607C4.99888 3.99107 2.86496 2.84821 1.44531 1.09821C1.19531 1.52678 1.05246 2.01786 1.05246 2.55357C1.05246 3.55357 1.56138 4.4375 2.33817 4.95536C1.86496 4.9375 1.41853 4.80357 1.0346 4.58929C1.0346 4.59821 1.0346 4.61607 1.0346 4.625C1.0346 6.02679 2.02567 7.1875 3.3471 7.45536C3.10603 7.51786 2.8471 7.55357 2.58817 7.55357C2.40067 7.55357 2.2221 7.53571 2.04353 7.50893C2.4096 8.65179 3.4721 9.48214 4.73996 9.50893C3.74888 10.2857 2.50781 10.7411 1.1596 10.7411C0.918527 10.7411 0.695312 10.7321 0.46317 10.7054C1.73996 11.5268 3.25781 12 4.89174 12C10.1953 12 13.0971 7.60714 13.0971 3.79464C13.0971 3.66964 13.0971 3.54464 13.0882 3.41964C13.6507 3.00893 14.1417 2.5 14.5346 1.92857Z" fill="#E8E8E8"/>
</svg>
