<svg width="17" height="12" viewBox="0 0 17 12" fill="none" xmlns="http://www.w3.org/2000/svg">
<path d="M6.84821 8.35714V3.86607L11.1696 6.125L6.84821 8.35714ZM8.5 0.660714C5.13393 0.660714 2.90179 0.821428 2.90179 0.821428C2.58929 0.857142 1.90179 0.857142 1.29464 1.5C1.29464 1.5 0.803571 1.98214 0.660714 3.08928C0.491071 4.38393 0.5 5.67857 0.5 5.67857V6.89286C0.5 6.89286 0.491071 8.1875 0.660714 9.48214C0.803571 10.5804 1.29464 11.0714 1.29464 11.0714C1.90179 11.7054 2.70536 11.6875 3.0625 11.75C3.0625 11.75 4.33929 11.875 8.5 11.9107C11.8661 11.9107 14.0982 11.7411 14.0982 11.7411C14.4107 11.7054 15.0982 11.7054 15.7054 11.0714C15.7054 11.0714 16.1964 10.5804 16.3393 9.48214C16.5089 8.1875 16.5 6.89286 16.5 6.89286V5.67857C16.5 5.67857 16.5089 4.38393 16.3393 3.08928C16.1964 1.98214 15.7054 1.5 15.7054 1.5C15.0982 0.857142 14.4107 0.857142 14.0982 0.821428C14.0982 0.821428 11.8661 0.660714 8.5 0.660714Z" fill="#E8E8E8"/>
</svg>
